<svg xmlns="http://www.w3.org/2000/svg" width="36.37" height="25.458" viewBox="0 0 36.37 25.458"><path d="M18,27.325a1.809,1.809,0,0,0,1.809,1.809H34.375a1.809,1.809,0,0,0,0-3.619H19.809A1.807,1.807,0,0,0,18,27.324Z" transform="translate(0.185 -3.675)" fill="#fff"/><path d="M3,18.317a1.809,1.809,0,0,0,1.809,1.809H37.56a1.809,1.809,0,0,0,0-3.619H4.809A1.809,1.809,0,0,0,3,18.316Z" transform="translate(-3 -5.588)" fill="#fff"/><path d="M13.809,11.119a1.809,1.809,0,1,1,0-3.619H35.65a1.809,1.809,0,1,1,0,3.619H13.81Z" transform="translate(-1.089 -7.5)" fill="#fff"/></svg>